<svg id="Layer_1" data-name="Layer 1" xmlns="http://www.w3.org/2000/svg" viewBox="0 0 1080 1025.1"><defs><style>.cls-1{fill:#022612;}</style></defs><path class="cls-1" d="M379.9,285.3,606.56,416.09V130.79L379.9,0Z"/><path class="cls-1" d="M379.9,285.3,606.56,416.09V130.79L379.9,0Z"/><path class="cls-1" d="M606.56,233,833.21,102.21v285.3L606.56,518.3Z"/><path class="cls-1" d="M385.65,805.24l-.42-261.64-246.92,143,.49,261.64Z"/><path class="cls-1" d="M385.65,805.24l-.42-261.64-246.92,143,.49,261.64Z"/><path class="cls-1" d="M226.83,635.38,0,504.83l246.85-143L473.69,492.33Z"/><path class="cls-1" d="M833.09,541.12,606.31,671.66l246.92,143L1080,684.16Z"/><path class="cls-1" d="M833.09,541.12,606.31,671.66l246.92,143L1080,684.16Z"/><path class="cls-1" d="M764.71,763.45l-.43,261.65-246.85-143,.42-261.7Z"/></svg>